<svg width="168" height="120" viewBox="0 0 168 120" fill="none" xmlns="http://www.w3.org/2000/svg">
<g opacity="0.3" clip-path="url(#clip0_2_83)">
<path fill-rule="evenodd" clip-rule="evenodd" d="M166.499 18.7419C141.561 29.1541 129.093 41.3882 129.093 55.4447C139.722 56.4859 148.511 60.1735 155.461 66.5076C162.411 72.8417 165.886 80.1735 165.886 88.5033C165.886 97.3536 162.513 104.816 155.768 110.889C149.022 116.963 140.539 120 130.319 120C118.872 120 108.958 116.052 100.578 108.156C92.197 100.26 88.0067 90.6725 88.0067 79.3926C88.0067 45.553 110.287 19.089 154.848 0L166.499 18.7419ZM78.4924 18.7419C53.3502 29.1541 40.7793 41.3882 40.7793 55.4447C51.6129 56.4859 60.5046 60.1735 67.4544 66.5076C74.4043 72.8417 77.8792 80.1735 77.8792 88.5033C77.8792 97.3536 74.4554 104.816 67.6077 110.889C60.7601 116.963 52.2261 120 42.0057 120C30.5588 120 20.6963 116.052 12.4177 108.156C4.13921 100.26 0 90.6725 0 79.3926C0 45.553 22.178 19.089 66.5346 0L78.4924 18.7419Z" fill="#B00000"/>
</g>
<defs>
<clipPath id="clip0_2_83">
<rect width="167.233" height="120" fill="white"/>
</clipPath>
</defs>
</svg>
